<svg width="30" height="30" viewBox="0 0 30 30" fill="currentColor" stroke="currentColor" xmlns="http://www.w3.org/2000/svg">
    <path d="M21.7325 15.642L9.53808 27.7562C9.3647 27.9166 9.13539 28.004 8.89845 27.9999C8.66151 27.9957 8.43544 27.9004 8.26788 27.7339C8.10031 27.5674 8.00432 27.3428 8.00014 27.1075C7.99596 26.8721 8.08391 26.6443 8.24547 26.4721L19.7921 15L8.24547 3.52794C8.08391 3.35571 7.99596 3.12791 8.00014 2.89253C8.00432 2.65715 8.10031 2.43257 8.26788 2.26611C8.43544 2.09965 8.66151 2.00429 8.89845 2.00014C9.13539 1.99599 9.3647 2.08336 9.53808 2.24385L21.7325 14.358C21.9038 14.5283 22 14.7592 22 15C22 15.2408 21.9038 15.4717 21.7325 15.642Z" />
</svg>