<svg width="30" height="30" viewBox="0 0 30 30" fill="none" xmlns="http://www.w3.org/2000/svg">
    <path d="M29.8689 1.45933L29.7994 23.6185C29.7864 23.9566 29.6426 24.2764 29.3985 24.5107C29.1543 24.745 28.8288 24.8754 28.4905 24.8745C28.1522 24.8736 27.8274 24.7413 27.5848 24.5057C27.3421 24.27 27.2004 23.9493 27.1895 23.6112L27.2476 4.60509L2.31595 29.3892C2.07031 29.6334 1.73776 29.7701 1.39146 29.7691C1.04515 29.7681 0.713464 29.6296 0.469358 29.3841C0.225252 29.1385 0.088726 28.806 0.0898128 28.4597C0.0908996 28.1134 0.22951 27.7817 0.475153 27.5375L25.4068 2.75333L6.4007 2.69865C6.06262 2.68577 5.74279 2.54216 5.50857 2.29809C5.27436 2.05401 5.14406 1.72852 5.14512 1.3902C5.14618 1.05187 5.27852 0.727115 5.51426 0.484355C5.75001 0.241595 6.07074 0.0997796 6.4089 0.08879L28.5681 0.15075C28.9141 0.151934 29.2454 0.290416 29.4893 0.535774C29.7333 0.781133 29.8698 1.1133 29.8689 1.45933Z" fill="white" />
</svg>