<svg width="32" height="32" viewBox="0 0 32 32" fill="none" xmlns="http://www.w3.org/2000/svg">
    <path d="M4.24999 16C4.24999 16.1989 4.32901 16.3896 4.46966 16.5303C4.61031 16.671 4.80108 16.75 4.99999 16.75H25.1887L17.47 24.47C17.3963 24.5386 17.3372 24.6214 17.2962 24.7134C17.2552 24.8054 17.2332 24.9047 17.2314 25.0054C17.2296 25.1061 17.2481 25.2062 17.2859 25.2996C17.3236 25.393 17.3797 25.4778 17.451 25.549C17.5222 25.6202 17.607 25.6764 17.7004 25.7141C17.7938 25.7518 17.8938 25.7703 17.9945 25.7686C18.0952 25.7668 18.1945 25.7447 18.2865 25.7038C18.3785 25.6628 18.4613 25.6037 18.53 25.53L27.53 16.53C27.6704 16.3893 27.7493 16.1987 27.7493 16C27.7493 15.8012 27.6704 15.6106 27.53 15.47L18.53 6.46997C18.3878 6.33749 18.1998 6.26537 18.0055 6.26879C17.8112 6.27222 17.6258 6.35093 17.4884 6.48835C17.351 6.62576 17.2722 6.81114 17.2688 7.00545C17.2654 7.19975 17.3375 7.38779 17.47 7.52997L25.1887 15.25H4.99999C4.80108 15.25 4.61031 15.329 4.46966 15.4696C4.32901 15.6103 4.24999 15.8011 4.24999 16Z" fill="#00ADBB" />
</svg>