<svg width="40" height="40" viewBox="0 0 40 40" fill="none" xmlns="http://www.w3.org/2000/svg">
    <path d="M37.7099 39.2971L8.40743 39.3793C7.96026 39.3647 7.53613 39.1772 7.22439 38.8562C6.91266 38.5352 6.73765 38.1057 6.73624 37.6583C6.73483 37.2109 6.90714 36.7805 7.21685 36.4578C7.52656 36.135 7.9495 35.9451 8.39656 35.9281L33.5296 35.8555L0.560534 3.08217C0.235702 2.75927 0.0524022 2.3206 0.0509611 1.86266C0.0495201 1.40472 0.230056 0.965021 0.552849 0.6403C0.875643 0.315579 1.31425 0.132433 1.77219 0.131148C2.23013 0.129863 2.66989 0.310547 2.99472 0.633451L35.9637 33.4068L35.8867 8.27385C35.9011 7.82669 36.0884 7.40263 36.4094 7.091C36.7303 6.77937 37.1596 6.60451 37.607 6.60326C38.0544 6.602 38.4849 6.77445 38.8078 7.08427C39.1306 7.39409 39.3207 7.8171 39.3379 8.26417L39.4301 37.5666C39.4312 38.0242 39.2507 38.4635 38.9282 38.7879C38.6057 39.1124 38.1675 39.2955 37.7099 39.2971Z" fill="#002856" />
</svg>