<svg width="32" height="32" viewBox="0 0 32 32" fill="none" xmlns="http://www.w3.org/2000/svg">
    <path d="M4.24968 16.0001C4.24968 16.199 4.3287 16.3898 4.46935 16.5304C4.61 16.6711 4.80077 16.7501 4.99968 16.7501H25.1884L17.4697 24.4701C17.396 24.5388 17.3369 24.6216 17.2959 24.7136C17.2549 24.8056 17.2329 24.9049 17.2311 25.0056C17.2293 25.1063 17.2478 25.2063 17.2856 25.2997C17.3233 25.3931 17.3794 25.4779 17.4506 25.5491C17.5219 25.6203 17.6067 25.6765 17.7001 25.7142C17.7935 25.7519 17.8935 25.7705 17.9942 25.7687C18.0949 25.7669 18.1942 25.7449 18.2862 25.7039C18.3782 25.6629 18.461 25.6038 18.5297 25.5301L27.5297 16.5301C27.6701 16.3895 27.749 16.1988 27.749 16.0001C27.749 15.8013 27.6701 15.6107 27.5297 15.4701L18.5297 6.47009C18.3875 6.33761 18.1995 6.26549 18.0052 6.26892C17.8109 6.27234 17.6255 6.35106 17.4881 6.48847C17.3506 6.62588 17.2719 6.81127 17.2685 7.00557C17.2651 7.19987 17.3372 7.38792 17.4697 7.53009L25.1884 15.2501H4.99968C4.80077 15.2501 4.61 15.3291 4.46935 15.4698C4.3287 15.6104 4.24968 15.8012 4.24968 16.0001Z" fill="white" />
</svg>