<svg width="22" height="12" viewBox="0 0 22 12" fill="none" xmlns="http://www.w3.org/2000/svg">
    <path d="M10.7387 11.2613L0.738707 1.26129C0.606226 1.11912 0.534105 0.931071 0.537533 0.73677C0.54096 0.542469 0.619673 0.357084 0.757086 0.219671C0.894499 0.0822578 1.07988 0.00354506 1.27419 0.000116846C1.46849 -0.00331137 1.65653 0.0688125 1.79871 0.201293L11.2687 9.67004L20.7387 0.201293C20.8809 0.0688125 21.0689 -0.00331137 21.2632 0.000116846C21.4575 0.00354506 21.6429 0.0822578 21.7803 0.219671C21.9177 0.357084 21.9965 0.542469 21.9999 0.73677C22.0033 0.931071 21.9312 1.11912 21.7987 1.26129L11.7987 11.2613C11.6581 11.4017 11.4675 11.4806 11.2687 11.4806C11.07 11.4806 10.8793 11.4017 10.7387 11.2613Z" fill="#00ADBB" />
</svg>