<svg width="30" height="30" viewBox="0 0 30 30" fill="currentColor" stroke="currentColor" xmlns="http://www.w3.org/2000/svg">
    <path d="M8.26747 15.642L20.4619 27.7562C20.6353 27.9166 20.8646 28.004 21.1015 27.9999C21.3385 27.9957 21.5646 27.9004 21.7321 27.7339C21.8997 27.5674 21.9957 27.3428 21.9999 27.1075C22.004 26.8721 21.9161 26.6443 21.7545 26.4721L10.2079 15L21.7545 3.52794C21.9161 3.35571 22.004 3.12791 21.9999 2.89253C21.9957 2.65715 21.8997 2.43257 21.7321 2.26611C21.5646 2.09965 21.3385 2.00429 21.1015 2.00014C20.8646 1.99599 20.6353 2.08336 20.4619 2.24385L8.26747 14.358C8.0962 14.5283 8 14.7592 8 15C8 15.2408 8.0962 15.4717 8.26747 15.642Z" />
</svg>