<svg width="32" height="30" viewBox="0 0 32 30" fill="none" xmlns="http://www.w3.org/2000/svg">
    <path d="M31.6083 27.1105C31.7292 27.2123 31.8262 27.335 31.8935 27.4714C31.9607 27.6077 31.9969 27.755 31.9998 27.9042C32.0027 28.0535 31.9723 28.2018 31.9104 28.3402C31.8485 28.4786 31.7564 28.6044 31.6395 28.7099C31.5226 28.8155 31.3834 28.8987 31.2302 28.9546C31.0769 29.0106 30.9128 29.038 30.7475 29.0354C30.5823 29.0327 30.4193 29.0001 30.2683 28.9393C30.1173 28.8786 29.9815 28.7909 29.8688 28.6817L15.9693 16.1286L2.06981 28.6817C1.8365 28.8781 1.52791 28.985 1.20906 28.9799C0.890204 28.9748 0.585982 28.8582 0.360484 28.6545C0.134986 28.4508 0.00581754 28.176 0.00019175 27.888C-0.00543404 27.6 0.112922 27.3212 0.330325 27.1105L14.2278 14.5555L0.330325 2.00046C0.112922 1.78972 -0.00543404 1.51098 0.00019175 1.22297C0.00581754 0.934955 0.134986 0.66016 0.360484 0.456474C0.585982 0.252788 0.890204 0.136114 1.20906 0.131033C1.52791 0.125951 1.8365 0.232858 2.06981 0.429232L15.9693 12.9824L29.8688 0.429232C30.1021 0.232858 30.4107 0.125951 30.7295 0.131033C31.0484 0.136114 31.3526 0.252788 31.5781 0.456474C31.8036 0.66016 31.9328 0.934955 31.9384 1.22297C31.944 1.51098 31.8257 1.78972 31.6083 2.00046L17.7108 14.5555L31.6083 27.1105Z" fill="#343330" />
</svg>