<svg width="38" height="38" viewBox="0 0 38 38" fill="none" xmlns="http://www.w3.org/2000/svg">
    <circle cx="19" cy="19" r="18.5" fill="#F2F2F2" stroke="#002856" />
    <path fill-rule="evenodd" clip-rule="evenodd" d="M14.9599 26.0409H11.2979V15.3438H14.9599V26.0409Z" fill="#002856" />
    <path fill-rule="evenodd" clip-rule="evenodd" d="M13.118 12.9661H13.0972C12.0044 12.9661 11.2979 12.1734 11.2979 11.1826C11.2979 10.1709 12.0259 9.40039 13.1395 9.40039C14.253 9.40039 14.9388 10.1709 14.9599 11.1826C14.9599 12.1734 14.253 12.9661 13.118 12.9661Z" fill="#002856" />
    <path fill-rule="evenodd" clip-rule="evenodd" d="M28.3865 26.0406H24.788V20.4491C24.788 19.0446 24.2672 18.0862 22.9645 18.0862C21.9703 18.0862 21.3781 18.7323 21.118 19.3563C21.0229 19.58 20.9995 19.8916 20.9995 20.2039V26.0409H17.4004C17.4004 26.0409 17.4478 16.5702 17.4004 15.5894H20.9995V17.0698C21.4771 16.3582 22.3326 15.3438 24.2432 15.3438C26.6113 15.3438 28.3866 16.8378 28.3866 20.0481L28.3865 26.0406Z" fill="#002856" />
</svg>