<svg width="16" height="36" viewBox="0 0 16 36" fill="none" xmlns="http://www.w3.org/2000/svg">
    <path d="M5.13899 36H10.861C11.8099 36 12.5863 35.2236 12.5863 34.2748V24.815H13.5636C14.5128 24.815 15.2889 24.0383 15.2889 23.0897V12.4217C15.2889 11.4728 14.5128 10.6965 13.5636 10.6965H2.43612C1.48723 10.6965 0.710876 11.4728 0.710876 12.4217V23.0897C0.710876 24.0383 1.48723 24.815 2.43612 24.815H3.41375V34.2748C3.41375 35.2236 4.16136 36 5.13899 36Z" fill="#0000FF" />
    <path d="M7.98563 9.02875C10.4789 9.02875 12.5 7.0076 12.5 4.51438C12.5 2.02116 10.4789 0 7.98563 0C5.49241 0 3.47125 2.02116 3.47125 4.51438C3.47125 7.0076 5.49241 9.02875 7.98563 9.02875Z" fill="#0000FF" />
</svg>