<svg width="15" height="15" viewBox="0 0 15 15" fill="none" xmlns="http://www.w3.org/2000/svg">
    <path fillRule="evenodd" clipRule="evenodd" d="M6.39228 0C9.92265 0 12.7846 2.86192 12.7846 6.39228C12.7846 7.90142 12.2616 9.2884 11.387 10.3819L13.9971 12.9926C14.2744 13.27 14.2744 13.7197 13.9971 13.9971C13.741 14.2531 13.3381 14.2728 13.0595 14.0561L12.9926 13.9971L10.3819 11.387C9.2884 12.2616 7.90142 12.7846 6.39228 12.7846C2.86192 12.7846 0 9.92265 0 6.39228C0 2.86192 2.86192 0 6.39228 0ZM6.39228 1.42051C3.64645 1.42051 1.42051 3.64645 1.42051 6.39228C1.42051 9.13812 3.64645 11.3641 6.39228 11.3641C9.13812 11.3641 11.3641 9.13812 11.3641 6.39228C11.3641 3.64645 9.13812 1.42051 6.39228 1.42051Z" fill="#002856" />
</svg>